<svg id="ADD_your_design_here" data-name="ADD your design here" xmlns="http://www.w3.org/2000/svg" viewBox="0 0 646.33 861.76">
  <defs>
    <style>
      .cls-1 {
        fill: none;
        stroke: blue;
        stroke-width: 0.03px;
      }
    </style>
  </defs>
  <title>CurieDice</title>
  <circle class="cls-1" cx="56.71" cy="56.71" r="14.17"/>
  <circle class="cls-1" cx="56.71" cy="158.75" r="14.17"/>
  <circle class="cls-1" cx="158.75" cy="56.71" r="14.17"/>
  <circle class="cls-1" cx="158.75" cy="158.75" r="14.17"/>
  <circle class="cls-1" cx="107.73" cy="56.71" r="14.17"/>
  <circle class="cls-1" cx="107.73" cy="158.75" r="14.17"/>
  <circle class="cls-1" cx="487.57" cy="56.71" r="14.17"/>
  <circle class="cls-1" cx="487.57" cy="158.75" r="14.17"/>
  <circle class="cls-1" cx="589.62" cy="56.71" r="14.17"/>
  <circle class="cls-1" cx="589.62" cy="158.75" r="14.17"/>
  <circle class="cls-1" cx="56.71" cy="272.14" r="14.17"/>
  <circle class="cls-1" cx="56.71" cy="374.19" r="14.17"/>
  <circle class="cls-1" cx="158.75" cy="272.14" r="14.17"/>
  <circle class="cls-1" cx="158.75" cy="374.19" r="14.17"/>
  <circle class="cls-1" cx="107.73" cy="323.16" r="14.17"/>
  <circle class="cls-1" cx="272.14" cy="374.19" r="14.17"/>
  <circle class="cls-1" cx="374.19" cy="272.14" r="14.17"/>
  <circle class="cls-1" cx="323.16" cy="323.16" r="14.17"/>
  <circle class="cls-1" cx="487.57" cy="272.14" r="14.17"/>
  <circle class="cls-1" cx="589.62" cy="374.19" r="14.17"/>
  <circle class="cls-1" cx="56.71" cy="487.57" r="14.17"/>
  <circle class="cls-1" cx="56.71" cy="589.62" r="14.17"/>
  <circle class="cls-1" cx="158.75" cy="487.57" r="14.17"/>
  <circle class="cls-1" cx="158.75" cy="589.62" r="14.17"/>
  <circle class="cls-1" cx="107.73" cy="487.57" r="14.17"/>
  <circle class="cls-1" cx="107.73" cy="589.62" r="14.17"/>
  <circle class="cls-1" cx="487.57" cy="487.57" r="14.17"/>
  <circle class="cls-1" cx="487.57" cy="589.62" r="14.17"/>
  <circle class="cls-1" cx="589.62" cy="487.57" r="14.17"/>
  <circle class="cls-1" cx="589.62" cy="589.62" r="14.17"/>
  <circle class="cls-1" cx="56.71" cy="703.01" r="14.17"/>
  <circle class="cls-1" cx="56.71" cy="805.05" r="14.17"/>
  <circle class="cls-1" cx="158.75" cy="703.01" r="14.17"/>
  <circle class="cls-1" cx="158.75" cy="805.05" r="14.17"/>
  <circle class="cls-1" cx="107.73" cy="754.03" r="14.17"/>
  <circle class="cls-1" cx="272.14" cy="805.05" r="14.17"/>
  <circle class="cls-1" cx="374.19" cy="703.01" r="14.17"/>
  <circle class="cls-1" cx="323.16" cy="754.03" r="14.17"/>
  <circle class="cls-1" cx="487.57" cy="703.01" r="14.17"/>
  <circle class="cls-1" cx="589.62" cy="805.05" r="14.17"/>
  <path id="path6" class="cls-1" d="M394.12,540c-5.13-25-53.48-26.57-84.65-7.53v2.1c31.13-16.07,75.3-16,79.32,7.05,1.35,7.63-2.91,15.56-10.56,20.12v6c9.21-3.38,18.62-14.31,15.89-27.71m-56.68,43.75c-21.51,2-43.92-1.14-47.06-18-1.56-8.31,2.24-17.13,7.24-22.6v-2.93c-9,7.94-13.92,18-11.09,29.85,3.61,15.22,22.84,23.84,52.21,21,11.63-1.12,26.84-4.88,37.4-10.71v-8.28C366.53,577.81,350.66,582.56,337.44,583.79Z" transform="translate(-16.99 -16.99)"/>
  <rect id="rect12" class="cls-1" x="284.6" y="520.19" width="5.64" height="5.37"/>
  <path id="path14" class="cls-1" d="M341,567.8c-4.57,0-6.5-3.19-6.5-6.34V539.58h5.58v6.06h4.22v4.54H340.1v10.95a1.74,1.74,0,0,0,1.95,2h2.28v4.68H341" transform="translate(-16.99 -16.99)"/>
  <path id="path16" class="cls-1" d="M355.85,549.9a4.27,4.27,0,0,0-4,2.33,6,6,0,0,0-.55,2.41h8.63c-0.12-2.42-1.21-4.74-4.08-4.74m-4.55,8.57a4.67,4.67,0,0,0,5,5,6.34,6.34,0,0,0,5.15-2.11l3.45,3.32a11,11,0,0,1-8.63,3.52c-5.35,0-10.48-2.93-10.48-11.48,0-7.31,4.47-11.44,10.36-11.44s9.39,4.83,9.39,11.18v2H351.3" transform="translate(-16.99 -16.99)"/>
  <g>
    <path id="path10" class="cls-1" d="M307.23,545.64h-5.64v16.48c0,3,1.42,5.54,5.64,5.95" transform="translate(-16.99 -16.99)"/>
    <line class="cls-1" x1="290.24" y1="528.65" x2="290.24" y2="551.07"/>
  </g>
  <g>
    <path id="path18" class="cls-1" d="M322.43,550.18c1.64,0,2.32.81,2.32,2.13v15.53h5.6V552.28c0-3.16-1.68-6.64-6.58-6.64H312.22v22.19h5.58V550.18" transform="translate(-16.99 -16.99)"/>
    <line class="cls-1" x1="300.8" y1="533.19" x2="305.43" y2="533.19"/>
  </g>
  <g>
    <path id="path8" class="cls-1" d="M374.41,536.42h-5.64v25.23c0,3,1.42,5.54,5.64,5.95" transform="translate(-16.99 -16.99)"/>
    <line class="cls-1" x1="357.41" y1="519.43" x2="357.41" y2="550.6"/>
  </g>
  <path id="path6-2" data-name="path6" class="cls-1" d="M394.12,108.93c-5.13-25-53.48-26.57-84.65-7.53v2.1c31.13-16.07,75.3-16,79.32,7.05,1.35,7.63-2.91,15.56-10.56,20.12v6c9.21-3.38,18.62-14.31,15.89-27.71m-56.68,43.75c-21.51,2-43.92-1.14-47.06-18-1.56-8.31,2.24-17.13,7.24-22.6v-2.93c-9,7.94-13.92,18-11.09,29.85,3.61,15.22,22.84,23.84,52.21,21,11.63-1.12,26.84-4.88,37.4-10.71V141C366.53,146.71,350.66,151.46,337.44,152.68Z" transform="translate(-16.99 -16.99)"/>
  <rect id="rect12-2" data-name="rect12" class="cls-1" x="284.6" y="89.09" width="5.64" height="5.37"/>
  <path id="path14-2" data-name="path14" class="cls-1" d="M341,136.7c-4.57,0-6.5-3.19-6.5-6.34V108.48h5.58v6.06h4.22v4.54H340.1V130a1.74,1.74,0,0,0,1.95,2h2.28v4.68H341" transform="translate(-16.99 -16.99)"/>
  <path id="path16-2" data-name="path16" class="cls-1" d="M355.85,118.8a4.27,4.27,0,0,0-4,2.33,6,6,0,0,0-.55,2.41h8.63c-0.12-2.42-1.21-4.74-4.08-4.74m-4.55,8.57a4.67,4.67,0,0,0,5,5,6.34,6.34,0,0,0,5.15-2.11l3.45,3.32a11,11,0,0,1-8.63,3.52c-5.35,0-10.48-2.93-10.48-11.48,0-7.31,4.47-11.44,10.36-11.44s9.39,4.83,9.39,11.18v2H351.3" transform="translate(-16.99 -16.99)"/>
  <g>
    <path id="path10-2" data-name="path10" class="cls-1" d="M307.23,114.54h-5.64V131c0,3,1.42,5.54,5.64,5.95" transform="translate(-16.99 -16.99)"/>
    <line class="cls-1" x1="290.24" y1="97.54" x2="290.24" y2="119.97"/>
  </g>
  <g>
    <path id="path18-2" data-name="path18" class="cls-1" d="M322.43,119.07c1.64,0,2.32.81,2.32,2.13v15.53h5.6V121.18c0-3.16-1.68-6.64-6.58-6.64H312.22v22.19h5.58V119.07" transform="translate(-16.99 -16.99)"/>
    <line class="cls-1" x1="300.8" y1="102.08" x2="305.43" y2="102.08"/>
  </g>
  <g>
    <path id="path8-2" data-name="path8" class="cls-1" d="M374.41,105.32h-5.64v25.23c0,3,1.42,5.54,5.64,5.95" transform="translate(-16.99 -16.99)"/>
    <line class="cls-1" x1="357.41" y1="88.32" x2="357.41" y2="119.5"/>
  </g>
  <path class="cls-1" d="M212.31,117.59v2.74h11.62V103.18h8.5V60.09h-8.5V17H189.35v8.5H146.27V17H130V27.5H119.48V17h-16.3v8.5H60.09V17H25.51V60.09H17v43.09h8.5v17.15H37.13V117.5a0.71,0.71,0,1,1,.71-0.71h6.38v3.54h7.09v8.79H44.22v3.54h-6.4a0.7,0.7,0,0,1-.69.62,0.71,0.71,0,1,1,0-1.42v-2.75H25.51v17.15H17v43.09h8.5v43.09H60.09v-8.5h43.09v8.5h16.3V222H130v10.49h16.3v-8.5h43.09v8.5h34.58V189.35h8.5V146.27h-8.5V129.12H212.31v2.75a0.71,0.71,0,1,1-.7.79h-6.39v-3.54h-7.09v-8.79h7.09v-3.54h6.39a0.7,0.7,0,0,1,.69-0.61A0.71,0.71,0,0,1,212.31,117.59Z" transform="translate(-16.99 -16.99)"/>
  <path class="cls-1" d="M663.31,60.09V25.51H620.22V17H577.13v8.5H560V37.13h2.8a0.71,0.71,0,1,1,.75.73v6.35H560v7.09H551.2V44.22h-3.54V37.87a0.71,0.71,0,1,1,.73-0.74h2.81V25.51H534V17H491v8.5H447.87V60.09h8.5v43.09h-8.5v16.3h10.49V130H447.87v16.3h8.5v43.09h-8.5v34.58H491v8.5H534v-8.5H551.2V212.31h-2.81a0.71,0.71,0,1,1-.74-0.73v-6.36h3.54v-7.09H560v7.09h3.54v6.35h0a0.71,0.71,0,1,1-.7.74H560v11.62h17.15v8.5h43.09v-8.5h43.09V189.35h-8.5V146.27h8.5V130H652.82V119.48h10.49v-16.3h-8.5V60.09h8.5Z" transform="translate(-16.99 -16.99)"/>
  <path class="cls-1" d="M232.44,103.18h8.5v17.15h11.62v-2.8a0.7,0.7,0,1,1,.77-0.74h6.32v3.54h7.09v8.79h-7.09v3.54h-6.31a0.71,0.71,0,1,1-.77-0.71v-2.84H240.94v17.15h-8.5" transform="translate(-16.99 -16.99)"/>
  <path class="cls-1" d="M232.44,189.35h8.5v43.09h34.58v-8.5h43.09v8.5h16.3V222H345.4v10.49h16.3v-8.5h43.09v8.5h34.58V189.35h8.5V146.27h-8.5V129.12H427.75V132a0.71,0.71,0,1,1-.71.71h-6.38v-3.54h-7.09v-8.79h7.09v-3.54H427a0.71,0.71,0,1,1,.71.71v2.83h11.62V103.18h8.5V60.09h-8.5V17H404.79v8.5H361.7V17H345.4V27.5H334.91V17h-16.3v8.5H275.53V17H240.94V60.09h-8.5" transform="translate(-16.99 -16.99)"/>
  <path class="cls-1" d="M232.44,275.53V240.94H189.35v-8.5H146.27v8.5H129.12v11.62h2.82a0.71,0.71,0,1,1,.73.72v6.36h-3.54v7.09h-8.79v-7.09h-3.54v-6.36h0a0.71,0.71,0,1,1,.7-0.73h2.87V240.94H103.18v-8.5H60.09v8.5H17v34.58h8.5v43.09H17v16.3H27.5V345.4H17v16.3h8.5v43.09H17v34.58H60.09v8.5h43.09v-8.5h17.15V427.75h-2.82v0a0.71,0.71,0,1,1-.73-0.7v-6.4h3.54v-7.09h8.79v7.09h3.54v6.4a0.71,0.71,0,1,1-.72.71v0h-2.83v11.62h17.15v8.5h43.09v-8.5h43.09V404.79h-8.5V361.7h8.5V345.4H222V334.91h10.49v-16.3h-8.5V275.53h8.5Z" transform="translate(-16.99 -16.99)"/>
  <path class="cls-1" d="M223.94,534h8.5V491h-8.5V447.87H189.35v8.5H146.27v-8.5H130v10.49H119.48V447.87h-16.3v8.5H60.09v-8.5H25.51V491H17V534h8.5V551.2H37.13v-2.91a0.71,0.71,0,1,1,.74-0.7,0.66,0.66,0,0,1,0,.07h6.36v3.54h7.09V560H44.22v3.54H37.87a0.71,0.71,0,1,1-.73-0.72V560H25.51v17.15H17v43.09h8.5v43.09H60.09v-8.5h43.09v8.5h16.3V652.82H130v10.49h16.3v-8.5h43.09v8.5h34.58V620.22h8.5V577.13h-8.5V560H212.31v2.81a0.71,0.71,0,1,1-.74.74h-6.35V560h-7.09V551.2h7.09v-3.54h6.34a0.71,0.71,0,1,1,.74.73v2.82h11.62V534Z" transform="translate(-16.99 -16.99)"/>
  <path class="cls-1" d="M232.44,534h8.5V551.2h11.62v-2.81a0.71,0.71,0,1,1,.71-0.74h6.38v3.54h7.09V560h-7.09v3.54h-6.38a0.71,0.71,0,1,1-.71-0.73V560H240.94v17.15h-8.5" transform="translate(-16.99 -16.99)"/>
  <path class="cls-1" d="M232.44,620.22h8.5v43.09h34.58v-8.5h43.09v8.5h16.3V652.82H345.4v10.49h16.3v-8.5h43.09v8.5h34.58V620.22h8.5V577.13h-8.5V560H427.75v2.81a0.71,0.71,0,1,1-.7.74h-6.38V560h-7.09V551.2h7.09v-3.54H427a0.71,0.71,0,1,1,.7.75v2.79h11.62V534h8.5V491h-8.5V447.87H404.79v8.5H361.7v-8.5H345.4v10.49H334.91V447.87h-16.3v8.5H275.53v-8.5H240.94V491h-8.5" transform="translate(-16.99 -16.99)"/>
  <path class="cls-1" d="M663.31,491V456.38H620.22v-8.5H577.13v8.5H560V468h2.81a0.71,0.71,0,1,1,.74.71v6.37H560v7.09H551.2v-7.09h-3.54v-6.37h0a0.71,0.71,0,1,1,.71-0.72h2.85V456.38H534v-8.5H491v8.5H447.87V491h8.5V534h-8.5v16.3h10.49v10.49H447.87v16.3h8.5v43.09h-8.5V654.8H491v8.5H534v-8.5H551.2V643.18h-2.81a0.71,0.71,0,1,1-.73-0.7v-6.39h3.54V629H560v7.09h3.54v6.39a0.71,0.71,0,1,1-.74.7H560V654.8h17.15v8.5h43.09v-8.5h43.09V620.22h-8.5V577.13h8.5v-16.3H652.82V550.35h10.49V534h-8.5V491h8.5Z" transform="translate(-16.99 -16.99)"/>
  <path class="cls-1" d="M577.13,663.31v8.5H560v11.62h2.8s0,0,0,0a0.71,0.71,0,1,1,.75.7v6.42H560v7.09H551.2v-7.09h-3.54v-6.41a0.71,0.71,0,1,1,.72-0.71s0,0,0,0h2.83V671.81H534v-8.5" transform="translate(-16.99 -16.99)"/>
  <path class="cls-1" d="M491,663.31v8.5H447.87v34.58h8.5v43.09h-8.5v16.3h10.49v10.49H447.87v16.3h8.5v43.09h-8.5v34.58H491v8.5H534v-8.5H551.2V858.61h-2.83a0.71,0.71,0,1,1-.72-0.74v-6.34h3.54v-7.09H560v7.09h3.54v6.35a0.71,0.71,0,1,1-.73.74H560v11.62h17.15v8.5h43.09v-8.5h43.09V835.65h-8.5V792.57h8.5v-16.3H652.82V765.78h10.49v-16.3h-8.5V706.39h8.5V671.81H620.22v-8.5" transform="translate(-16.99 -16.99)"/>
  <path class="cls-1" d="M447.87,671.81H404.79v-8.5H361.7v8.5H344.55v11.62h2.8a0.71,0.71,0,1,1,.75.7v6.4h-3.54v7.09h-8.79v-7.09h-3.54v-6.39h0a0.71,0.71,0,1,1,.71-0.71h2.84V671.81H318.61v-8.5H275.53v8.5H232.44v34.58h8.5v43.09h-8.5v16.3h10.49v10.49H232.44v16.3h8.5v43.09h-8.5v34.58h43.09v8.5h43.09v-8.5h17.15V858.61h-2.82a0.71,0.71,0,1,1-.72-0.73v-6.36h3.54v-7.09h8.79v7.09h3.54v6.36a0.71,0.71,0,1,1-.71.73h-2.83v11.62H361.7v8.5h43.09v-8.5h43.09" transform="translate(-16.99 -16.99)"/>
  <polyline class="cls-1" points="430.88 732.49 422.38 732.49 422.38 689.4 430.88 689.4"/>
  <polyline class="cls-1" points="430.88 759.27 420.39 759.27 420.39 748.79 430.88 748.79"/>
  <polyline class="cls-1" points="430.88 818.66 422.38 818.66 422.38 775.57 430.88 775.57"/>
  <path class="cls-1" d="M232.44,671.81H189.35v-8.5H146.27v8.5H129.12v11.62h2.79a0.71,0.71,0,1,1,.76.7v6.4h-3.54v7.09h-8.79v-7.09h-3.54v-6.39a0.71,0.71,0,1,1,.73-0.7h2.81V671.81H103.18v-8.5H60.09v8.5H17v34.58h8.5v43.09H17v16.3H27.5v10.49H17v16.3h8.5v43.09H17v34.58H60.09v8.5h43.09v-8.5h17.15V858.61H117.5a0.71,0.71,0,1,1-.71-0.72v-6.37h3.54v-7.09h8.79v7.09h3.54v6.37a0.7,0.7,0,1,1-.75.71h-2.79v11.62h17.15v8.5h43.09v-8.5h43.09" transform="translate(-16.99 -16.99)"/>
  <polyline class="cls-1" points="215.45 732.49 206.94 732.49 206.94 689.4 215.45 689.4"/>
  <polyline class="cls-1" points="215.45 759.27 204.96 759.27 204.96 748.79 215.45 748.79"/>
  <polyline class="cls-1" points="215.45 818.66 206.94 818.66 206.94 775.57 215.45 775.57"/>
  <polyline class="cls-1" points="215.45 344.71 223.95 344.71 223.95 387.79 215.45 387.79"/>
  <polyline class="cls-1" points="215.45 317.92 225.94 317.92 225.94 328.41 215.45 328.41"/>
  <polyline class="cls-1" points="215.45 258.53 223.95 258.53 223.95 301.62 215.45 301.62"/>
  <path class="cls-1" d="M232.44,439.37h43.09v8.5h43.09v-8.5h17.15V427.75h-2.82a0.71,0.71,0,1,1-.72-0.71v-6.4h3.54v-7.09h8.79v7.09h3.54v6.4a0.71,0.71,0,1,1-.72.71h-2.82v11.62H361.7v8.5h43.09v-8.5h43.09V404.79h-8.5V361.7h8.5V345.4H437.39V334.91h10.49v-16.3h-8.5V275.53h8.5V240.94H404.79v-8.5H361.7v8.5H344.55v11.62h2.83a0.71,0.71,0,1,1,.72.72v6.37h-3.54v7.09h-8.79v-7.09h-3.54v-6.37a0.71,0.71,0,1,1,.72-0.72h2.83V240.94H318.61v-8.5H275.53v8.5H232.44" transform="translate(-16.99 -16.99)"/>
  <path class="cls-1" d="M534,447.87v-8.5H551.2V427.75h-2.82a0.7,0.7,0,0,1-.69.63,0.71,0.71,0,0,1,0-1.41v-6.3h3.54v-7.09H560v7.09h3.54V427a0.71,0.71,0,1,1-.72.78H560v11.62h17.15v8.5" transform="translate(-16.99 -16.99)"/>
  <polyline class="cls-1" points="430.88 422.38 473.97 422.38 473.97 430.88"/>
  <polyline class="cls-1" points="430.88 344.71 439.38 344.71 439.38 387.79 430.88 387.79"/>
  <polyline class="cls-1" points="430.88 317.92 441.37 317.92 441.37 328.41 430.88 328.41"/>
  <polyline class="cls-1" points="430.88 258.53 439.38 258.53 439.38 301.62 430.88 301.62"/>
  <polyline class="cls-1" points="473.97 215.45 473.97 223.95 430.88 223.95"/>
  <path class="cls-1" d="M577.13,232.44v8.5H560v11.62h2.81a0.71,0.71,0,1,1,.74.71v6.37H560v7.09H551.2v-7.09h-3.54v-6.37h0a0.71,0.71,0,1,1,.71-0.72h2.84V240.94H534v-8.5" transform="translate(-16.99 -16.99)"/>
  <polyline class="cls-1" points="603.23 430.88 603.23 422.38 646.31 422.38 646.31 387.79 637.81 387.79 637.81 344.71 646.31 344.71 646.31 328.41 635.83 328.41 635.83 317.92 646.31 317.92 646.31 301.62 637.81 301.62 637.81 258.53 646.31 258.53 646.31 223.95 603.23 223.95 603.23 215.45"/>
</svg>
